<?xml version="1.0" encoding="UTF-8" standalone="no"?>
<svg viewBox="0 0 400 300" xmlns="http://www.w3.org/2000/svg">
  <g stroke="#333333" stroke-width="1.5" fill="none">
    <line x1="133" y1="50" x2="133" y2="250" stroke-dasharray="4 4"/>
    <line x1="266" y1="50" x2="266" y2="250" stroke-dasharray="4 4"/>
    
    <text x="66" y="40" font-family="Arial, sans-serif" font-size="14" fill="#333333" text-anchor="middle">To Do</text>
    <text x="200" y="40" font-family="Arial, sans-serif" font-size="14" fill="#333333" text-anchor="middle">In Progress</text>
    <text x="333" y="40" font-family="Arial, sans-serif" font-size="14" fill="#333333" text-anchor="middle">Done</text>
  </g>
  
  <g transform="translate(33, 70)">
    <rect width="80" height="60" rx="3" ry="3" fill="#f5f5f5" stroke="#333333" stroke-width="1"/>
    <text x="10" y="20" font-family="Arial, sans-serif" font-size="10" fill="#333333">TASK-001</text>
    <line x1="10" y1="25" x2="70" y2="25" stroke="#333333" stroke-width="0.5"/>
    <text x="10" y="40" font-family="Arial, sans-serif" font-size="12" fill="#333333">Database</text>
  </g>
  
  <g transform="translate(33, 150)">
    <rect width="80" height="60" rx="3" ry="3" fill="#f5f5f5" stroke="#333333" stroke-width="1"/>
    <text x="10" y="20" font-family="Arial, sans-serif" font-size="10" fill="#333333">TASK-002</text>
    <line x1="10" y1="25" x2="70" y2="25" stroke="#333333" stroke-width="0.5"/>
    <text x="10" y="40" font-family="Arial, sans-serif" font-size="12" fill="#333333">Login</text>
  </g>
  
  <g transform="translate(160, 70)">
    <rect width="80" height="60" rx="3" ry="3" fill="#e6e6e6" stroke="#333333" stroke-width="1"/>
    <text x="10" y="20" font-family="Arial, sans-serif" font-size="10" fill="#333333">TASK-003</text>
    <line x1="10" y1="25" x2="70" y2="25" stroke="#333333" stroke-width="0.5"/>
    <text x="10" y="40" font-family="Arial, sans-serif" font-size="12" fill="#333333">UI Design</text>
  </g>
  
  <g transform="translate(293, 70)">
    <rect width="80" height="60" rx="3" ry="3" fill="#d9d9d9" stroke="#333333" stroke-width="1"/>
    <text x="10" y="20" font-family="Arial, sans-serif" font-size="10" fill="#333333">TASK-004</text>
    <line x1="10" y1="25" x2="70" y2="25" stroke="#333333" stroke-width="0.5"/>
    <text x="10" y="40" font-family="Arial, sans-serif" font-size="12" fill="#333333">Setup</text>
  </g>
  
  <g transform="translate(293, 150)">
    <rect width="80" height="60" rx="3" ry="3" fill="#d9d9d9" stroke="#333333" stroke-width="1"/>
    <text x="10" y="20" font-family="Arial, sans-serif" font-size="10" fill="#333333">TASK-005</text>
    <line x1="10" y1="25" x2="70" y2="25" stroke="#333333" stroke-width="0.5"/>
    <text x="10" y="40" font-family="Arial, sans-serif" font-size="12" fill="#333333">APIs</text>
  </g>
</svg>