<svg xmlns="http://www.w3.org/2000/svg" viewBox="0 0 500 500" fill="none">
  
  <rect x="150" y="100" width="200" height="280" rx="20" fill="white" stroke="#6366F1" stroke-width="8" />
  <rect x="170" y="100" width="160" height="30" rx="10" fill="#6366F1" />
  
  <rect x="180" y="150" width="140" height="20" rx="5" fill="#E0E7FF" />
  <rect x="180" y="190" width="140" height="20" rx="5" fill="#E0E7FF" />
  <rect x="180" y="230" width="140" height="20" rx="5" fill="#E0E7FF" />
  <rect x="180" y="270" width="140" height="20" rx="5" fill="#E0E7FF" />
  <rect x="180" y="310" width="140" height="20" rx="5" fill="#E0E7FF" />
  
  <circle cx="200" cy="160" r="10" fill="#6366F1" />
  <path d="M195 160L198 163L205 156" stroke="white" stroke-width="2" stroke-linecap="round" stroke-linejoin="round" />
  
  <circle cx="200" cy="200" r="10" fill="#6366F1" />
  <path d="M195 200L198 203L205 196" stroke="white" stroke-width="2" stroke-linecap="round" stroke-linejoin="round" />
  
  <circle cx="200" cy="240" r="10" stroke="#6366F1" stroke-width="2" fill="white" />
  
  <circle cx="200" cy="280" r="10" stroke="#6366F1" stroke-width="2" fill="white" />
  
  <circle cx="200" cy="320" r="10" stroke="#6366F1" stroke-width="2" fill="white" />
  
  <circle cx="380" cy="150" r="30" fill="#C7D2FE" opacity="0.7" />
  <circle cx="120" cy="320" r="40" fill="#C7D2FE" opacity="0.7" />
</svg>