<?xml version="1.0" encoding="UTF-8" standalone="no"?>
<svg viewBox="0 0 500 400" xmlns="http://www.w3.org/2000/svg">
  <rect x="0" y="0" width="500" height="400" fill="#f9f9f9" rx="10" ry="10"/>
  
  <rect x="50" y="50" width="400" height="300" fill="#ffffff" stroke="#333333" stroke-width="2" rx="5" ry="5"/>
  
  <rect x="50" y="50" width="400" height="40" fill="#333333" rx="5" ry="5"/>
  <text x="70" y="75" font-family="Arial, sans-serif" font-size="16" fill="#ffffff" font-weight="bold">Task Board</text>
  
  <rect x="60" y="100" width="120" height="240" fill="#f2f2f2" stroke="#cccccc" stroke-width="1" rx="3" ry="3"/>
  <rect x="190" y="100" width="120" height="240" fill="#f2f2f2" stroke="#cccccc" stroke-width="1" rx="3" ry="3"/>
  <rect x="320" y="100" width="120" height="240" fill="#f2f2f2" stroke="#cccccc" stroke-width="1" rx="3" ry="3"/>
  
  <rect x="60" y="100" width="120" height="30" fill="#e6e6e6" stroke="#cccccc" stroke-width="1" rx="3" ry="3"/>
  <text x="105" y="120" font-family="Arial, sans-serif" font-size="12" fill="#333333" text-anchor="middle">To Do</text>
  
  <rect x="190" y="100" width="120" height="30" fill="#e6e6e6" stroke="#cccccc" stroke-width="1" rx="3" ry="3"/>
  <text x="250" y="120" font-family="Arial, sans-serif" font-size="12" fill="#333333" text-anchor="middle">In Progress</text>
  
  <rect x="320" y="100" width="120" height="30" fill="#e6e6e6" stroke="#cccccc" stroke-width="1" rx="3" ry="3"/>
  <text x="380" y="120" font-family="Arial, sans-serif" font-size="12" fill="#333333" text-anchor="middle">Done</text>
  
  <rect x="70" y="140" width="100" height="70" fill="#ffffff" stroke="#cccccc" stroke-width="1" rx="3" ry="3" filter="drop-shadow(0px 2px 2px rgba(0,0,0,0.1))"/>
  <text x="80" y="160" font-family="Arial, sans-serif" font-size="10" fill="#333333" font-weight="bold">TASK-001</text>
  <text x="80" y="180" font-family="Arial, sans-serif" font-size="11" fill="#333333">Create database</text>
  <circle cx="155" cy="155" r="8" fill="#999999"/>
  <text x="155" y="158" font-family="Arial, sans-serif" font-size="9" fill="#ffffff" text-anchor="middle">JD</text>
  
  <rect x="70" y="220" width="100" height="70" fill="#ffffff" stroke="#cccccc" stroke-width="1" rx="3" ry="3" filter="drop-shadow(0px 2px 2px rgba(0,0,0,0.1))"/>
  <text x="80" y="240" font-family="Arial, sans-serif" font-size="10" fill="#333333" font-weight="bold">TASK-002</text>
  <text x="80" y="260" font-family="Arial, sans-serif" font-size="11" fill="#333333">Implement login</text>
  <circle cx="155" cy="235" r="8" fill="#666666"/>
  <text x="155" y="238" font-family="Arial, sans-serif" font-size="9" fill="#ffffff" text-anchor="middle">AM</text>
  
  <rect x="200" y="140" width="100" height="70" fill="#ffffff" stroke="#cccccc" stroke-width="1" rx="3" ry="3" filter="drop-shadow(0px 2px 2px rgba(0,0,0,0.1))"/>
  <text x="210" y="160" font-family="Arial, sans-serif" font-size="10" fill="#333333" font-weight="bold">TASK-003</text>
  <text x="210" y="180" font-family="Arial, sans-serif" font-size="11" fill="#333333">Design UI</text>
  <circle cx="285" cy="155" r="8" fill="#444444"/>
  <text x="285" y="158" font-family="Arial, sans-serif" font-size="9" fill="#ffffff" text-anchor="middle">SJ</text>
  
  <rect x="330" y="140" width="100" height="70" fill="#ffffff" stroke="#cccccc" stroke-width="1" rx="3" ry="3" filter="drop-shadow(0px 2px 2px rgba(0,0,0,0.1))"/>
  <text x="340" y="160" font-family="Arial, sans-serif" font-size="10" fill="#333333" font-weight="bold">TASK-004</text>
  <text x="340" y="180" font-family="Arial, sans-serif" font-size="11" fill="#333333">Project setup</text>
  <circle cx="415" cy="155" r="8" fill="#222222"/>
  <text x="415" y="158" font-family="Arial, sans-serif" font-size="9" fill="#ffffff" text-anchor="middle">TP</text>
  
  <rect x="330" y="220" width="100" height="70" fill="#ffffff" stroke="#cccccc" stroke-width="1" rx="3" ry="3" filter="drop-shadow(0px 2px 2px rgba(0,0,0,0.1))"/>
  <text x="340" y="240" font-family="Arial, sans-serif" font-size="10" fill="#333333" font-weight="bold">TASK-005</text>
  <text x="340" y="260" font-family="Arial, sans-serif" font-size="11" fill="#333333">Research APIs</text>
  <circle cx="415" cy="235" r="8" fill="#999999"/>
  <text x="415" y="238" font-family="Arial, sans-serif" font-size="9" fill="#ffffff" text-anchor="middle">JD</text>
  
  <g transform="translate(165, 325)">
    <circle cx="85" cy="0" r="15" fill="#333333"/>
    <rect x="75" y="15" width="20" height="20" fill="#333333" rx="5" ry="5"/>
    <rect x="70" y="-40" width="30" height="20" fill="#ffffff" stroke="#333333" stroke-width="1" rx="2" ry="2"/>
    <line x1="85" y1="-20" x2="85" y2="-15" stroke="#333333" stroke-width="1"/>
    <line x1="75" y1="-30" x2="95" y2="-30" stroke="#333333" stroke-width="1"/>
  </g>
  
  <g transform="translate(50, 330)">
    <circle cx="20" cy="0" r="10" fill="#444444"/>
    <text x="20" y="3" font-family="Arial, sans-serif" font-size="8" fill="#ffffff" text-anchor="middle">TP</text>
    
    <circle cx="40" cy="0" r="10" fill="#666666"/>
    <text x="40" y="3" font-family="Arial, sans-serif" font-size="8" fill="#ffffff" text-anchor="middle">AM</text>
    
    <circle cx="60" cy="0" r="10" fill="#999999"/>
    <text x="60" y="3" font-family="Arial, sans-serif" font-size="8" fill="#ffffff" text-anchor="middle">JD</text>
  </g>
</svg>